<svg xmlns="http://www.w3.org/2000/svg" width="24" height="24" viewBox="0 0 24 24">
    <g fill="none" fill-rule="evenodd">
        <path stroke="#6D7278" stroke-linecap="round" stroke-linejoin="round" d="M3.5 20.5h20V.5h-20z"/>
        <path stroke="#6D7278" stroke-linecap="round" stroke-linejoin="round" d="M3.5 4.5h-3v19h19v-3"/>
        <path fill="#6D7278" fill-rule="nonzero" d="M12.73 9.61h.883c.568 0 1.005-.175 1.313-.524.307-.349.46-.826.46-1.43 0-1.333-.515-2-1.546-2-.495 0-.883.18-1.164.54-.281.359-.422.83-.422 1.413h-1.375c0-.911.277-1.662.832-2.254.555-.59 1.264-.886 2.129-.886.896 0 1.607.28 2.133.84.526.56.789 1.352.789 2.378 0 .527-.137 1.017-.41 1.473-.274.456-.63.79-1.067 1.004 1.073.396 1.61 1.284 1.61 2.664 0 1.016-.283 1.824-.848 2.426-.565.601-1.304.902-2.215.902-.901 0-1.629-.285-2.184-.855-.554-.57-.832-1.337-.832-2.301H12.2c0 .604.146 1.085.438 1.441.291.357.69.536 1.195.536.516 0 .926-.175 1.23-.524.305-.349.458-.88.458-1.594 0-1.38-.654-2.07-1.961-2.07h-.829V9.61z"/>
    </g>
</svg>
