<svg xmlns="http://www.w3.org/2000/svg" width="24" height="24" viewBox="0 0 24 24">
    <g fill="none" fill-rule="evenodd">
        <path stroke="#6D7278" stroke-linecap="round" stroke-linejoin="round" d="M3.5 20.5h20V.5h-20z"/>
        <path stroke="#6D7278" stroke-linecap="round" stroke-linejoin="round" d="M3.5 4.5h-3v19h19v-3"/>
        <path fill="#6D7278" fill-rule="nonzero" d="M11.527 10.297l.493-5.672h4.945v1.336h-3.781l-.266 3.101a2.592 2.592 0 0 1 1.516-.492c.885 0 1.58.344 2.086 1.032.505.687.757 1.612.757 2.773 0 1.177-.274 2.102-.824 2.773-.55.672-1.303 1.008-2.262 1.008-.854 0-1.55-.278-2.086-.836-.536-.557-.843-1.328-.921-2.312h1.296c.079.65.265 1.142.56 1.472.293.331.677.497 1.151.497.537 0 .956-.234 1.258-.7.302-.466.453-1.095.453-1.886 0-.745-.162-1.352-.488-1.82-.325-.47-.764-.704-1.316-.704-.459 0-.826.12-1.102.36l-.367.367-1.102-.297z"/>
    </g>
</svg>
