<svg xmlns="http://www.w3.org/2000/svg" width="24" height="24" viewBox="0 0 24 24">
    <g fill="none" fill-rule="evenodd">
        <path stroke="#6D7278" stroke-linecap="round" stroke-linejoin="round" d="M3.5 20.5h20V.5h-20z"/>
        <path stroke="#6D7278" stroke-linecap="round" stroke-linejoin="round" d="M3.5 4.5h-3v19h19v-3"/>
        <path fill="#6D7278" fill-rule="nonzero" d="M15.777 4.617v1.227h-.226c-.922.02-1.643.332-2.164.933-.521.602-.82 1.507-.899 2.715.505-.635 1.151-.953 1.938-.953.838 0 1.504.345 1.996 1.035s.738 1.595.738 2.715c0 1.193-.272 2.135-.816 2.828-.545.693-1.275 1.04-2.192 1.04-.922 0-1.664-.41-2.226-1.227-.563-.818-.844-1.904-.844-3.258v-.555c0-1.562.17-2.807.508-3.734.338-.927.837-1.616 1.496-2.067.659-.45 1.478-.683 2.457-.699h.234zm-1.586 5.125c-.375 0-.72.143-1.039.43a2.43 2.43 0 0 0-.687 1.094v.57c0 .922.163 1.673.488 2.254.326.58.725.87 1.2.87.515 0 .919-.237 1.21-.714.292-.476.438-1.105.438-1.887 0-.77-.146-1.4-.438-1.886-.291-.487-.682-.73-1.172-.73z"/>
    </g>
</svg>
