<svg xmlns="http://www.w3.org/2000/svg" width="24" height="24" viewBox="0 0 24 24">
    <g fill="none" fill-rule="evenodd">
        <path stroke="#6D7278" stroke-linecap="round" stroke-linejoin="round" d="M3.5 20.5h20V.5h-20z"/>
        <path stroke="#6D7278" stroke-linecap="round" stroke-linejoin="round" d="M3.5 4.5h-3v19h19v-3"/>
        <path fill="#6D7278" fill-rule="nonzero" d="M13.848 4.469c.958 0 1.707.415 2.246 1.246.539.83.808 1.98.808 3.45v.429c0 1.26-.095 2.281-.285 3.062-.19.782-.47 1.412-.84 1.89-.37.48-.84.843-1.414 1.09-.573.248-1.289.372-2.148.372v-1.219h.242c.98-.02 1.723-.319 2.23-.894.508-.576.783-1.494.825-2.754-.552.703-1.198 1.054-1.938 1.054-.828 0-1.487-.349-1.976-1.047-.49-.697-.735-1.612-.735-2.742 0-1.187.267-2.14.801-2.86.534-.718 1.262-1.077 2.184-1.077zm0 1.203c-.5 0-.897.246-1.192.738-.294.492-.441 1.132-.441 1.918 0 .787.143 1.429.43 1.926.286.497.674.746 1.164.746.333 0 .658-.14.976-.418.318-.279.565-.644.742-1.098v-.609c0-.943-.164-1.712-.492-2.309-.328-.596-.724-.894-1.187-.894z"/>
    </g>
</svg>
