<svg xmlns="http://www.w3.org/2000/svg" width="14" height="24" viewBox="0 0 14 24">
    <g fill="#22B14C" fill-rule="evenodd">
        <path d="M7 19.13l6.195 4.767A.5.5 0 0 0 14 23.5v-3.96l-7-5.41-7 5.41v3.96a.5.5 0 0 0 .805.397L7 19.13zM6.714 3.104a.5.5 0 0 1 .61 0L14 8.229V.5a.5.5 0 0 0-.5-.5H.5a.5.5 0 0 0-.5.5v7.777l6.714-5.173z"/>
        <path d="M7 4.13L0 9.54v3.737l6.711-5.173a.49.49 0 0 1 .578 0L14 13.277V9.54L7 4.13z"/>
        <path d="M7 9.13l-7 5.41v3.737l6.711-5.173a.49.49 0 0 1 .578 0L14 18.277V14.54L7 9.13z"/>
    </g>
</svg>
