<svg class="lds-flask" width="200px"  height="200px"  xmlns="http://www.w3.org/2000/svg" xmlns:xlink="http://www.w3.org/1999/xlink" viewBox="0 0 100 100" preserveAspectRatio="xMidYMid" style="background: none;"><defs>
<clipPath id="lds-flask-cpid-99371d0ebfd6a" clipPathUnits="userSpaceOnUse">
<rect x="0" y="50" width="100" height="50"></rect>
</clipPath>
<pattern id="lds-flask-patid-b9524f548dd3d" patternUnits="userSpaceOnUse" x="0" y="0" width="100" height="100">
<rect x="0" y="0" width="100" height="100" fill="#78C2AD"></rect><circle cx="4" cy="0" r="3" fill="#c2ffee" transform="translate(0 109.871)">
<animateTransform attributeName="transform" type="translate" values="0 130;0 -30" keyTimes="0;1" dur="8.2s" begin="-2.214s" repeatCount="indefinite"></animateTransform>
</circle><circle cx="45" cy="0" r="2" fill="#c2ffee" transform="translate(0 -21.5192)">
<animateTransform attributeName="transform" type="translate" values="0 136;0 -36" keyTimes="0;1" dur="8.2s" begin="-0.49199999999999994s" repeatCount="indefinite"></animateTransform>
</circle><circle cx="69" cy="0" r="2" fill="#c2ffee" transform="translate(0 96.064)">
<animateTransform attributeName="transform" type="translate" values="0 134;0 -34" keyTimes="0;1" dur="8.2s" begin="-3.034s" repeatCount="indefinite"></animateTransform>
</circle><circle cx="86" cy="0" r="3" fill="#c2ffee" transform="translate(0 -22.8289)">
<animateTransform attributeName="transform" type="translate" values="0 142;0 -42" keyTimes="0;1" dur="8.2s" begin="-0.32799999999999996s" repeatCount="indefinite"></animateTransform>
</circle><circle cx="88" cy="0" r="2" fill="#c2ffee" transform="translate(0 49.0473)">
<animateTransform attributeName="transform" type="translate" values="0 132;0 -32" keyTimes="0;1" dur="8.2s" begin="-5.33s" repeatCount="indefinite"></animateTransform>
</circle><circle cx="32" cy="0" r="3" fill="#c2ffee" transform="translate(0 72.0073)">
<animateTransform attributeName="transform" type="translate" values="0 132;0 -32" keyTimes="0;1" dur="8.2s" begin="-4.1819999999999995s" repeatCount="indefinite"></animateTransform>
</circle><circle cx="44" cy="0" r="2" fill="#c2ffee" transform="translate(0 46.4383)">
<animateTransform attributeName="transform" type="translate" values="0 119;0 -19" keyTimes="0;1" dur="8.2s" begin="-5.494s" repeatCount="indefinite"></animateTransform>
</circle><circle cx="23" cy="0" r="2" fill="#c2ffee" transform="translate(0 46.3867)">
<animateTransform attributeName="transform" type="translate" values="0 120;0 -20" keyTimes="0;1" dur="8.2s" begin="-5.494s" repeatCount="indefinite"></animateTransform>
</circle><circle cx="42" cy="0" r="3" fill="#c2ffee" transform="translate(0 57.8035)">
<animateTransform attributeName="transform" type="translate" values="0 122;0 -22" keyTimes="0;1" dur="8.2s" begin="-4.837999999999999s" repeatCount="indefinite"></animateTransform>
</circle><circle cx="87" cy="0" r="3" fill="#c2ffee" transform="translate(0 93.7208)">
<animateTransform attributeName="transform" type="translate" values="0 136;0 -36" keyTimes="0;1" dur="8.2s" begin="-3.1979999999999995s" repeatCount="indefinite"></animateTransform>
</circle><circle cx="69" cy="0" r="3" fill="#c2ffee" transform="translate(0 -16.6133)">
<animateTransform attributeName="transform" type="translate" values="0 120;0 -20" keyTimes="0;1" dur="8.2s" begin="-0.9839999999999999s" repeatCount="indefinite"></animateTransform>
</circle><circle cx="84" cy="0" r="3" fill="#c2ffee" transform="translate(0 92.1957)">
<animateTransform attributeName="transform" type="translate" values="0 133;0 -33" keyTimes="0;1" dur="8.2s" begin="-3.1979999999999995s" repeatCount="indefinite"></animateTransform>
</circle><circle cx="1" cy="0" r="2" fill="#c2ffee" transform="translate(0 66.3713)">
<animateTransform attributeName="transform" type="translate" values="0 111;0 -11" keyTimes="0;1" dur="8.2s" begin="-4.1819999999999995s" repeatCount="indefinite"></animateTransform>
</circle><circle cx="1" cy="0" r="2" fill="#c2ffee" transform="translate(0 55.8124)">
<animateTransform attributeName="transform" type="translate" values="0 135;0 -35" keyTimes="0;1" dur="8.2s" begin="-5.001999999999999s" repeatCount="indefinite"></animateTransform>
</circle><circle cx="9" cy="0" r="3" fill="#c2ffee" transform="translate(0 -22.0179)">
<animateTransform attributeName="transform" type="translate" values="0 129;0 -29" keyTimes="0;1" dur="8.2s" begin="-0.82s" repeatCount="indefinite"></animateTransform>
</circle><circle cx="59" cy="0" r="2" fill="#c2ffee" transform="translate(0 57.6008)">
<animateTransform attributeName="transform" type="translate" values="0 136;0 -36" keyTimes="0;1" dur="8.2s" begin="-4.919999999999999s" repeatCount="indefinite"></animateTransform>
</circle><circle cx="68" cy="0" r="2" fill="#c2ffee" transform="translate(0 44.8381)">
<animateTransform attributeName="transform" type="translate" values="0 150;0 -50" keyTimes="0;1" dur="8.2s" begin="-5.494s" repeatCount="indefinite"></animateTransform>
</circle><circle cx="84" cy="0" r="2" fill="#c2ffee" transform="translate(0 108.34)">
<animateTransform attributeName="transform" type="translate" values="0 124;0 -24" keyTimes="0;1" dur="8.2s" begin="-2.05s" repeatCount="indefinite"></animateTransform>
</circle><circle cx="84" cy="0" r="2" fill="#c2ffee" transform="translate(0 79.8389)">
<animateTransform attributeName="transform" type="translate" values="0 131;0 -31" keyTimes="0;1" dur="8.2s" begin="-3.772s" repeatCount="indefinite"></animateTransform>
</circle><circle cx="72" cy="0" r="3" fill="#c2ffee" transform="translate(0 55.4797)">
<animateTransform attributeName="transform" type="translate" values="0 112;0 -12" keyTimes="0;1" dur="8.2s" begin="-4.919999999999999s" repeatCount="indefinite"></animateTransform>
</circle><circle cx="24" cy="0" r="3" fill="#c2ffee" transform="translate(0 58.6016)">
<animateTransform attributeName="transform" type="translate" values="0 117;0 -17" keyTimes="0;1" dur="8.2s" begin="-4.755999999999999s" repeatCount="indefinite"></animateTransform>
</circle><circle cx="77" cy="0" r="3" fill="#c2ffee" transform="translate(0 123.319)">
<animateTransform attributeName="transform" type="translate" values="0 143;0 -43" keyTimes="0;1" dur="8.2s" begin="-2.05s" repeatCount="indefinite"></animateTransform>
</circle><circle cx="18" cy="0" r="2" fill="#c2ffee" transform="translate(0 47.2642)">
<animateTransform attributeName="transform" type="translate" values="0 103;0 -3" keyTimes="0;1" dur="8.2s" begin="-5.494s" repeatCount="indefinite"></animateTransform>
</circle><circle cx="44" cy="0" r="3" fill="#c2ffee" transform="translate(0 14.7738)">
<animateTransform attributeName="transform" type="translate" values="0 128;0 -28" keyTimes="0;1" dur="8.2s" begin="-7.1339999999999995s" repeatCount="indefinite"></animateTransform>
</circle><circle cx="99" cy="0" r="3" fill="#c2ffee" transform="translate(0 41.2046)">
<animateTransform attributeName="transform" type="translate" values="0 146;0 -46" keyTimes="0;1" dur="8.2s" begin="-5.6579999999999995s" repeatCount="indefinite"></animateTransform>
</circle><circle cx="78" cy="0" r="3" fill="#c2ffee" transform="translate(0 29.8705)">
<animateTransform attributeName="transform" type="translate" values="0 130;0 -30" keyTimes="0;1" dur="8.2s" begin="-6.314s" repeatCount="indefinite"></animateTransform>
</circle><circle cx="81" cy="0" r="2" fill="#c2ffee" transform="translate(0 72.0526)">
<animateTransform attributeName="transform" type="translate" values="0 104;0 -4" keyTimes="0;1" dur="8.2s" begin="-3.6079999999999997s" repeatCount="indefinite"></animateTransform>
</circle><circle cx="20" cy="0" r="2" fill="#c2ffee" transform="translate(0 71.8951)">
<animateTransform attributeName="transform" type="translate" values="0 121;0 -21" keyTimes="0;1" dur="8.2s" begin="-4.018s" repeatCount="indefinite"></animateTransform>
</circle><circle cx="16" cy="0" r="3" fill="#c2ffee" transform="translate(0 119.421)">
<animateTransform attributeName="transform" type="translate" values="0 148;0 -48" keyTimes="0;1" dur="8.2s" begin="-2.3779999999999997s" repeatCount="indefinite"></animateTransform>
</circle><circle cx="89" cy="0" r="3" fill="#c2ffee" transform="translate(0 30.4345)">
<animateTransform attributeName="transform" type="translate" values="0 109;0 -9" keyTimes="0;1" dur="8.2s" begin="-6.6419999999999995s" repeatCount="indefinite"></animateTransform>
</circle><circle cx="21" cy="0" r="2" fill="#c2ffee" transform="translate(0 59.104)">
<animateTransform attributeName="transform" type="translate" values="0 134;0 -34" keyTimes="0;1" dur="8.2s" begin="-4.837999999999999s" repeatCount="indefinite"></animateTransform>
</circle><circle cx="70" cy="0" r="2" fill="#c2ffee" transform="translate(0 76.477)">
<animateTransform attributeName="transform" type="translate" values="0 126;0 -26" keyTimes="0;1" dur="8.2s" begin="-3.8539999999999996s" repeatCount="indefinite"></animateTransform>
</circle><circle cx="97" cy="0" r="3" fill="#c2ffee" transform="translate(0 74.3621)">
<animateTransform attributeName="transform" type="translate" values="0 129;0 -29" keyTimes="0;1" dur="8.2s" begin="-4.018s" repeatCount="indefinite"></animateTransform>
</circle><circle cx="70" cy="0" r="3" fill="#c2ffee" transform="translate(0 -17.0417)">
<animateTransform attributeName="transform" type="translate" values="0 119;0 -19" keyTimes="0;1" dur="8.2s" begin="-1.0659999999999998s" repeatCount="indefinite"></animateTransform>
</circle><circle cx="14" cy="0" r="3" fill="#c2ffee" transform="translate(0 101.712)">
<animateTransform attributeName="transform" type="translate" values="0 135;0 -35" keyTimes="0;1" dur="8.2s" begin="-2.7879999999999994s" repeatCount="indefinite"></animateTransform>
</circle><circle cx="31" cy="0" r="2" fill="#c2ffee" transform="translate(0 -37.3786)">
<animateTransform attributeName="transform" type="translate" values="0 148;0 -48" keyTimes="0;1" dur="8.2s" begin="-0.738s" repeatCount="indefinite"></animateTransform>
</circle><circle cx="89" cy="0" r="2" fill="#c2ffee" transform="translate(0 37.8151)">
<animateTransform attributeName="transform" type="translate" values="0 121;0 -21" keyTimes="0;1" dur="8.2s" begin="-5.985999999999999s" repeatCount="indefinite"></animateTransform>
</circle><circle cx="81" cy="0" r="3" fill="#c2ffee" transform="translate(0 111.932)">
<animateTransform attributeName="transform" type="translate" values="0 123;0 -23" keyTimes="0;1" dur="8.2s" begin="-1.8039999999999998s" repeatCount="indefinite"></animateTransform>
</circle><circle cx="45" cy="0" r="2" fill="#c2ffee" transform="translate(0 80.5395)">
<animateTransform attributeName="transform" type="translate" values="0 143;0 -43" keyTimes="0;1" dur="8.2s" begin="-3.9359999999999995s" repeatCount="indefinite"></animateTransform>
</circle><circle cx="23" cy="0" r="3" fill="#c2ffee" transform="translate(0 56.2751)">
<animateTransform attributeName="transform" type="translate" values="0 121;0 -21" keyTimes="0;1" dur="8.2s" begin="-4.919999999999999s" repeatCount="indefinite"></animateTransform>
</circle><circle cx="56" cy="0" r="2" fill="#c2ffee" transform="translate(0 82.2621)">
<animateTransform attributeName="transform" type="translate" values="0 129;0 -29" keyTimes="0;1" dur="8.2s" begin="-3.6079999999999997s" repeatCount="indefinite"></animateTransform>
</circle><circle cx="85" cy="0" r="3" fill="#c2ffee" transform="translate(0 73.3151)">
<animateTransform attributeName="transform" type="translate" values="0 121;0 -21" keyTimes="0;1" dur="8.2s" begin="-3.9359999999999995s" repeatCount="indefinite"></animateTransform>
</circle><circle cx="20" cy="0" r="3" fill="#c2ffee" transform="translate(0 -19.7295)">
<animateTransform attributeName="transform" type="translate" values="0 130;0 -30" keyTimes="0;1" dur="8.2s" begin="-0.6559999999999999s" repeatCount="indefinite"></animateTransform>
</circle><circle cx="90" cy="0" r="3" fill="#c2ffee" transform="translate(0 0.960983)">
<animateTransform attributeName="transform" type="translate" values="0 105;0 -5" keyTimes="0;1" dur="8.2s" begin="-0.738s" repeatCount="indefinite"></animateTransform>
</circle><circle cx="17" cy="0" r="2" fill="#c2ffee" transform="translate(0 79.0396)">
<animateTransform attributeName="transform" type="translate" values="0 112;0 -12" keyTimes="0;1" dur="8.2s" begin="-3.362s" repeatCount="indefinite"></animateTransform>
</circle><circle cx="88" cy="0" r="3" fill="#c2ffee" transform="translate(0 117.022)">
<animateTransform attributeName="transform" type="translate" values="0 129;0 -29" keyTimes="0;1" dur="8.2s" begin="-1.8039999999999998s" repeatCount="indefinite"></animateTransform>
</circle><circle cx="51" cy="0" r="3" fill="#c2ffee" transform="translate(0 96.8099)">
<animateTransform attributeName="transform" type="translate" values="0 118;0 -18" keyTimes="0;1" dur="8.2s" begin="-2.4599999999999995s" repeatCount="indefinite"></animateTransform>
</circle><circle cx="25" cy="0" r="2" fill="#c2ffee" transform="translate(0 32.397)">
<animateTransform attributeName="transform" type="translate" values="0 126;0 -26" keyTimes="0;1" dur="8.2s" begin="-6.231999999999999s" repeatCount="indefinite"></animateTransform>
</circle><circle cx="60" cy="0" r="3" fill="#c2ffee" transform="translate(0 69.8602)">
<animateTransform attributeName="transform" type="translate" values="0 124;0 -24" keyTimes="0;1" dur="8.2s" begin="-4.1819999999999995s" repeatCount="indefinite"></animateTransform>
</circle><circle cx="51" cy="0" r="3" fill="#c2ffee" transform="translate(0 45.7745)">
<animateTransform attributeName="transform" type="translate" values="0 109;0 -9" keyTimes="0;1" dur="8.2s" begin="-5.575999999999999s" repeatCount="indefinite"></animateTransform>
</circle>      </pattern></defs>

      <path fill="url(#lds-flask-patid-b9524f548dd3d)" clip-path="url(#lds-flask-cpid-99371d0ebfd6a)" d="M59,37.3V18.9c3-0.8,5.1-3.6,5.1-6.8C64.1,8.2,61,5,57.1,5H42.9c-3.9,0-7.1,3.2-7.1,7.1c0,3.2,2.2,6,5.1,6.8v18.4c-11.9,3.8-20.6,15-20.6,28.2C20.4,81.8,33.7,95,50,95s29.6-13.2,29.6-29.6C79.6,52.2,70.9,41.1,59,37.3z"></path>

      <path fill="none" stroke="#01b470" stroke-width="5" d="M59,37.3V18.9c3-0.8,5.1-3.6,5.1-6.8C64.1,8.2,61,5,57.1,5H42.9c-3.9,0-7.1,3.2-7.1,7.1c0,3.2,2.2,6,5.1,6.8v18.4c-11.9,3.8-20.6,15-20.6,28.2C20.4,81.8,33.7,95,50,95s29.6-13.2,29.6-29.6C79.6,52.2,70.9,41.1,59,37.3z"></path>
</svg>